<svg viewBox="0 0 53 53" fill="none" xmlns="http://www.w3.org/2000/svg">
    <path
        d="M0 26.5C0 11.8645 11.8645 0 26.5 0C41.1355 0 53 11.8645 53 26.5C53 41.1355 41.1355 53 26.5 53C11.8645 53 0 41.1355 0 26.5Z"
        fill="#55ACEE" />
    <path
        d="M25.7063 21.5396L25.7619 22.4565L24.8351 22.3442C21.4615 21.9138 18.5143 20.4542 16.0119 18.0027L14.7885 16.7863L14.4734 17.6846C13.8061 19.6869 14.2324 21.8015 15.6226 23.2238C16.3641 24.0097 16.1973 24.122 14.9183 23.6542C14.4734 23.5045 14.0841 23.3922 14.0471 23.4483C13.9173 23.5793 14.3622 25.2823 14.7144 25.9559C15.1963 26.8916 16.1787 27.8086 17.2538 28.3513L18.1621 28.7817L17.087 28.8004C16.049 28.8004 16.0119 28.8191 16.1231 29.2121C16.4938 30.4285 17.9582 31.7197 19.5894 32.2811L20.7386 32.6741L19.7377 33.2729C18.2548 34.1337 16.5124 34.6203 14.77 34.6577C13.9358 34.6764 13.25 34.7513 13.25 34.8074C13.25 34.9945 15.5114 36.0425 16.8275 36.4542C20.7757 37.6706 25.4654 37.1466 28.9872 35.0694C31.4896 33.591 33.992 30.653 35.1598 27.8086C35.79 26.2928 36.4202 23.5232 36.4202 22.1945C36.4202 21.3337 36.4759 21.2214 37.5139 20.1922C38.1256 19.5934 38.7002 18.9384 38.8114 18.7513C38.9968 18.3957 38.9782 18.3957 38.0329 18.7138C36.4573 19.2752 36.2349 19.2004 37.0134 18.3583C37.588 17.7594 38.2739 16.6741 38.2739 16.3559C38.2739 16.2998 37.9958 16.3934 37.6807 16.5618C37.3471 16.7489 36.6056 17.0296 36.0495 17.198L35.0486 17.5162L34.1403 16.8986C33.6398 16.5618 32.9354 16.1875 32.5647 16.0752C31.6194 15.8132 30.1735 15.8507 29.3209 16.1501C27.0039 16.9922 25.5395 19.1629 25.7063 21.5396Z"
        fill="white" />
</svg>