<svg viewBox="0 0 53 53" fill="none" xmlns="http://www.w3.org/2000/svg">
    <path
        d="M26.5 53C41.1355 53 53 41.1355 53 26.5C53 11.8645 41.1355 0 26.5 0C11.8645 0 0 11.8645 0 26.5C0 41.1355 11.8645 53 26.5 53Z"
        fill="#25D366" />
    <path fill-rule="evenodd" clip-rule="evenodd"
        d="M27.3734 41.2434H27.3669C24.7296 41.2425 22.1383 40.5808 19.8367 39.3254L11.4833 41.5167L13.7188 33.3512C12.3398 30.9614 11.6142 28.2506 11.6154 25.4734C11.6188 16.7852 18.6878 9.71667 27.3733 9.71667C31.5886 9.71849 35.5451 11.3595 38.5201 14.3381C41.4952 17.3165 43.1327 21.2755 43.1311 25.4858C43.1276 34.1721 36.0615 41.2399 27.3734 41.2434ZM20.2237 36.4727L20.702 36.7566C22.7129 37.9499 25.0179 38.5813 27.3681 38.5822H27.3734C34.5922 38.5822 40.4676 32.7067 40.4704 25.4849C40.4718 21.9853 39.1108 18.6947 36.638 16.2191C34.1653 13.7434 30.8768 12.3794 27.3786 12.3782C20.1542 12.3782 14.2788 18.2531 14.2759 25.4743C14.2749 27.9491 14.9673 30.3592 16.2784 32.4444L16.5898 32.94L15.2667 37.773L20.2237 36.4727ZM34.7728 28.8784C35.0474 29.0112 35.2329 29.1008 35.3121 29.233C35.4104 29.3971 35.4104 30.1855 35.0825 31.1053C34.7543 32.025 33.1813 32.8644 32.4248 32.9774C31.7465 33.0788 30.8881 33.1211 29.9449 32.8214C29.373 32.64 28.6397 32.3977 27.7003 31.992C24.0091 30.3982 21.5147 26.8207 21.0432 26.1445C21.0102 26.0971 20.9871 26.064 20.9742 26.0468L20.971 26.0426C20.7627 25.7645 19.3665 23.9017 19.3665 21.9738C19.3665 20.1601 20.2574 19.2095 20.6675 18.772C20.6955 18.742 20.7214 18.7144 20.7445 18.6891C21.1054 18.295 21.532 18.1964 21.7945 18.1964C22.0569 18.1964 22.3197 18.1988 22.5491 18.2104C22.5774 18.2118 22.6068 18.2116 22.6373 18.2114C22.8667 18.2101 23.1528 18.2084 23.435 18.8862C23.5435 19.1471 23.7024 19.5338 23.8699 19.9417C24.2087 20.7665 24.5831 21.6779 24.6489 21.8097C24.7474 22.0068 24.813 22.2367 24.6817 22.4996C24.662 22.539 24.6438 22.5762 24.6264 22.6117C24.5278 22.813 24.4553 22.961 24.288 23.1563C24.2222 23.2332 24.1542 23.316 24.0863 23.3988C23.9508 23.5637 23.8154 23.7287 23.6974 23.8462C23.5003 24.0425 23.2951 24.2555 23.5248 24.6497C23.7545 25.0439 24.5447 26.3332 25.7152 27.3773C26.9734 28.4995 28.0669 28.9739 28.6212 29.2143C28.7295 29.2613 28.8172 29.2993 28.8815 29.3315C29.2751 29.5287 29.5048 29.4957 29.7345 29.233C29.9641 28.9702 30.7187 28.0832 30.9811 27.6891C31.2436 27.2951 31.5062 27.3607 31.867 27.4921C32.228 27.6236 34.1638 28.576 34.5575 28.773C34.6343 28.8115 34.7062 28.8463 34.7728 28.8784Z"
        fill="#FDFDFD" />
</svg>