<svg viewBox="0 0 53 53" fill="none" xmlns="http://www.w3.org/2000/svg">
    <path
        d="M53 26.5C53 11.8629 41.1371 0 26.5 0C11.8629 0 0 11.8629 0 26.5C0 39.7294 9.68906 50.6916 22.3594 52.6791V34.1602H15.6308V26.5H22.3594V20.6617C22.3594 14.0212 26.3137 10.3516 32.3693 10.3516C35.2677 10.3516 38.3008 10.8691 38.3008 10.8691V17.3906H34.9573C31.6654 17.3906 30.6406 19.4351 30.6406 21.5313V26.5H37.9902L36.8153 34.1602H30.6406V52.6791C43.3109 50.6916 53 39.7294 53 26.5Z"
        fill="#1877F2" />
    <path
        d="M36.8154 34.1602L37.9902 26.5H30.6407V21.5312C30.6407 19.4351 31.6655 17.3906 34.9573 17.3906H38.3008V10.8691C38.3008 10.8691 35.2678 10.3516 32.3694 10.3516C26.3138 10.3516 22.3594 14.0211 22.3594 20.6617V26.5H15.6309V34.1602H22.3594V52.6791C23.7103 52.8913 25.0922 53 26.5001 53C27.9079 53 29.2898 52.8913 30.6407 52.6791V34.1602H36.8154Z"
        fill="white" />
</svg>