<svg viewBox="0 0 53 53" fill="none" xmlns="http://www.w3.org/2000/svg">
    <rect width="53" height="53" rx="26.5" fill="#AAB8CB" />
    <path fill-rule="evenodd" clip-rule="evenodd"
        d="M15.9999 18.0015C15.1715 18.0015 14.4999 18.6731 14.4999 19.5015V34.5015C14.4999 35.3299 15.1715 36.0015 15.9999 36.0015H36.9999C37.8283 36.0015 38.4999 35.3299 38.4999 34.5015V19.5015C38.4999 18.6731 37.8283 18.0015 36.9999 18.0015H15.9999ZM12.4999 19.5015C12.4999 17.5685 14.0669 16.0015 15.9999 16.0015H36.9999C38.9329 16.0015 40.4999 17.5685 40.4999 19.5015V34.5015C40.4999 36.4345 38.9329 38.0015 36.9999 38.0015H15.9999C14.0669 38.0015 12.4999 36.4345 12.4999 34.5015V19.5015Z"
        fill="white" />
    <path fill-rule="evenodd" clip-rule="evenodd"
        d="M16.7104 20.3879C17.0495 19.9519 17.6778 19.8734 18.1137 20.2125L26.4998 26.735L34.8858 20.2125C35.3218 19.8734 35.95 19.9519 36.2891 20.3879C36.6282 20.8238 36.5497 21.4521 36.1137 21.7912L27.1137 28.7912C26.7526 29.072 26.2469 29.072 25.8858 28.7912L16.8858 21.7912C16.4499 21.4521 16.3713 20.8238 16.7104 20.3879Z"
        fill="white" />
</svg>